<?xml version="1.0" standalone="no"?>
<!DOCTYPE svg PUBLIC "-//W3C//DTD SVG 20010904//EN"
 "http://www.w3.org/TR/2001/REC-SVG-20010904/DTD/svg10.dtd">
<svg version="1.0" xmlns="http://www.w3.org/2000/svg"
 width="460.000000pt" height="460.000000pt" viewBox="0 0 460.000000 460.000000"
 preserveAspectRatio="xMidYMid meet">

<g transform="translate(0.000000,460.000000) scale(0.100000,-0.100000)"
fill="#000000" stroke="none">
<path d="M10 2300 l0 -2300 2295 0 2295 0 0 2300 0 2300 -2295 0 -2295 0 0
-2300z m2690 1198 c11 -24 40 -97 65 -163 25 -66 54 -140 65 -165 18 -42 55
-137 217 -550 35 -91 80 -203 100 -250 33 -80 42 -104 77 -197 7 -21 30 -78
51 -128 20 -49 44 -108 52 -130 9 -22 22 -54 29 -72 8 -17 14 -34 14 -38 0 -3
8 -25 18 -48 18 -42 38 -90 68 -169 9 -24 23 -57 30 -75 8 -17 14 -34 14 -38
0 -3 8 -25 18 -48 10 -23 26 -60 34 -82 9 -22 24 -60 33 -85 10 -25 26 -63 36
-86 11 -22 19 -46 19 -52 0 -9 -63 -12 -245 -12 -245 0 -245 0 -254 22 -5 13
-33 86 -61 163 -28 77 -58 157 -66 178 -8 20 -21 55 -29 77 -35 94 -48 128
-65 170 -11 25 -33 86 -50 135 -17 50 -38 104 -46 120 -8 17 -18 44 -23 60 -5
17 -19 55 -31 85 -12 30 -25 66 -30 80 -5 14 -18 50 -30 80 -18 45 -53 140
-95 255 -4 11 -16 39 -26 62 -10 24 -19 47 -19 53 0 5 -7 24 -14 42 -8 18 -31
78 -51 133 -19 55 -40 109 -45 120 -6 11 -21 49 -33 85 -12 36 -26 71 -30 78
-6 9 -107 12 -448 12 l-439 0 0 210 0 210 585 0 585 0 20 -42z m-650 -2178 l0
-210 -605 0 -605 0 0 203 c0 112 3 207 7 210 3 4 276 7 605 7 l598 0 0 -210z"/>
</g>
</svg>
